# xmcd
#
# Track frame offsets: 
#        150
#        19001
#        33542
#        56052
#        72035
#        87978
#        107066
#        123180
#        145506
#        161698
#        182596
#        208070
#        222302
#        239021
#
# Disc length: 3479 seconds
#
# Revision: 0
# Processed by: cddbd v1.4PL0 Copyright (c) Steve Scherf et al.
# Submitted via: ExactAudioCopy v0.90b2
#
DISCID=c60d950e
DTITLE=Yvonne Washington - Holiday with Yvonne Washington
DYEAR=2002
DGENRE=Blues
TTITLE0=Am I Blue
TTITLE1=I'm Beginning to See the Light
TTITLE2=That's All
TTITLE3=Come Back to Me (On a Clear Day)
TTITLE4=Just Squeeze Me
TTITLE5=At Last
TTITLE6=Them There Eyes
TTITLE7=Autumn in New York
TTITLE8=L-O-V-E
TTITLE9=Do You Know What It Means to Miss New Orleans
TTITLE10=Summertime
TTITLE11=Pennies From Heaven
TTITLE12=Yesterday
TTITLE13=It's Not Easy Being Green
EXTD=
EXTT0=
EXTT1=
EXTT2=
EXTT3=
EXTT4=
EXTT5=
EXTT6=
EXTT7=
EXTT8=
EXTT9=
EXTT10=
EXTT11=
EXTT12=
EXTT13=
PLAYORDER=
